<svg version="1.2" xmlns="http://www.w3.org/2000/svg" viewBox="0 0 40 40" width="40" height="40">
	<title>ChatGPT Image Jun 30, 2025, 12_56_48 PM (1) (2)</title>
	<style>
		.s0 { fill: #f5e5c3 } 
		.s1 { fill: #cd4317 } 
		.s2 { fill: #1e6b31 } 
		.s3 { fill: #121916 } 
		.s4 { fill: #e89419 } 
	</style>
	<g id="Layer 1">
		<path class="s0" d="m2 2h36v36c-12 0-12 0-12.1 0-0.1 0-0.2 0-0.4 0h-0.9-3.8-15-2.5c-0.4 0-0.8 0-1.2 0q-0.1 0-0.1 0z"/>
		<path class="s1" d="m18.1 37.4c-0.3 0.1-3.4-0.1-3.8-0.1q-0.7-0.1-1.4-0.3c-1.1-0.4-2.2-1.1-2.7-2.2-0.4-0.7-0.5-1.5-0.4-2.3q0.1-0.7 0.4-1.4 0.4-0.9 1.2-1.5c0.9-0.7 2.4-1.2 2.7-2.3 0.6-1.6-1-2.5-2.1-3.1q-0.8-0.5-1.5-1c-0.7-0.6-1.3-1.4-1.8-2.2-0.6-1.2-0.7-2.5-0.3-3.8 0.4-1.1 1.2-2.1 2.2-2.6 1-0.5 2.2-0.7 3.3-0.3 1.9 0.6 2.8 2.6 3.6 4.2 0.6 1.3 1.3 2.5 2.5 3.3 0.2 0.2 0.5 0.3 0.7 0.4q0 0 0 0 1 0.4 2.1 0.8c0.3 0.1 0.6 0.2 0.9 0.3q0.9 0.3 1.8 0.5c2.1 0.7 4.4 1.5 5.6 3.5 0.7 1.3 0.9 2.7 0.5 4.1-0.5 1.9-1.8 3.5-3.6 4.5-1.1 0.7-2.4 1-3.7 1.3-0.2 0-0.5 0.1-0.7 0.1q0 0 0-0.1c-0.2 0.2-4.9 0.3-5.4 0.2q-0.1 0-0.1 0z"/>
		<path class="s2" d="m20.7 22.2q1 0.4 2.1 0.8c0.3 0.1 0.6 0.2 0.9 0.3q0.9 0.3 1.8 0.5c2.1 0.7 4.4 1.5 5.6 3.5 0.7 1.3 0.9 2.7 0.5 4.1-0.5 1.9-1.8 3.5-3.6 4.5-1.1 0.7-2.4 1-3.7 1.3-0.2 0-0.5 0.1-0.7 0.1q0 0 0-0.1c-0.2 0.2-4.9 0.3-5.4 0.2q-0.1 0-0.1 0-0.1 0-0.1 0c-0.1 0-0.3-0.1-0.4-0.1-0.5-0.2-0.9-0.4-1.2-0.8-0.6-0.5-0.7-1.3-0.7-2q0-0.2 0.1-0.3c0.6-3.1 5.6-2.1 7.7-3.5 0.5-0.3 0.9-0.7 1-1.3 0.3-1.2-1-1.9-1.7-2.6-0.5-0.4-1-0.8-1.3-1.3v-0.1c-0.5-0.8-0.8-1.6-0.8-2.6q0-0.3 0-0.6z"/>
		<path class="s3" d="m18.2 37.4q-0.1 0-0.1 0-0.1 0-0.1 0c-0.1 0-0.3-0.1-0.4-0.1-0.5-0.2-0.9-0.4-1.2-0.8-0.6-0.5-0.7-1.3-0.7-2q0 0 0.1 0c0.4 0.1 6.3 0 6.5 0q0 0 0-0.1v3c-1.5 0.1-3.7 0.1-4.1 0z"/>
		<path class="s3" d="m20.7 22.2q1 0.4 2.1 0.8c0.3 0.1 0.6 0.2 0.9 0.3 0.6 1.9 2.6 2.2 3.4 3.9-1.3-0.6-2.7-0.9-4.1-1.3q-0.4-0.1-0.9-0.2-0.3-0.2-0.6-0.2v-0.1c-0.5-0.8-0.8-1.6-0.8-2.6q0-0.3 0-0.6z"/>
		<path class="s0" d="m27.1 27.2c0.5 0.3 1 0.6 1.4 1.1 0.4 0.6 0.6 1.3 0.5 2.1-0.2 1-0.9 1.9-1.7 2.6-1 0.7-2.1 1.1-3.3 1.3-0.2 0-0.5 0.1-0.7 0.1-0.2 0-0.8 0.1-1 0q0.6-0.1 1.2-0.3c1.5-0.7 3-1.8 3.6-3.4 0.5-1.1 0.5-2.3 0-3.5z"/>
		<path class="s0" d="m15.7 34.5q0 0 0 0c-0.2 0.1-1.4-0.1-1.7-0.1q-0.2-0.1-0.4-0.1c-0.3-0.2-0.7-0.4-0.9-0.8q-0.2-0.4 0-0.9c0.2-0.8 1.1-1.2 1.8-1.7q0.5-0.3 0.9-0.6c0.7-0.5 1.2-1.2 1.5-2 0.3-0.8 0.3-1.6 0.1-2.4-0.4-2.1-2.2-3.2-3.9-4.3-0.7-0.5-1.5-1-1.9-1.9-0.2-0.5-0.3-1.1-0.1-1.6 0.2-0.5 0.5-0.8 0.9-1 1.4-0.6 2.3 1.2 2.8 2.2q0.4 0.8 0.9 1.5c0.4 0.8 0.9 1.5 1.5 2.1 1.2 1.3 2.7 1.9 4.3 2.5v0.1c0.3 0.5 0.8 0.9 1.3 1.3 0.7 0.7 2 1.4 1.7 2.6-0.1 0.6-0.5 1-1 1.3-2.1 1.4-7.1 0.4-7.7 3.5q-0.1 0.1-0.1 0.3z"/>
		<path class="s3" d="m15.3 11.8q-0.3 0-0.6 0c-1.1 0.1-2.2-0.2-3-0.9-0.9-0.8-1.4-1.9-1.4-3-0.1-1.1 0.3-2.2 1-3.1 0.7-0.8 1.7-1.3 2.8-1.4 1.1-0.1 2.2 0.3 3 1 0.9 0.8 1.3 1.8 1.4 3 0.1 1.4-0.4 2.4-1.3 3.4 0 0.7 0.7 1.7 1.1 2.2 0.4 0.3 0.7 0.5 1.2 0.5 1 0 1.8-0.9 2.5-1.5q0.4-0.4 0.7-0.8 0.1 0 0.1-0.1c0.8-0.8 2.1-1.4 3.3-1.4 1.2 0 2.4 0.4 3.3 1.2q-0.4 0.3-0.8 0.4-0.8 0.5-1.6 0.8c-0.3 0.2-0.8 0.3-1 0.5-0.9 0.2-1.4 0.7-2.1 1.3-1 0.8-2.2 1.8-3.6 1.9-1.8 0.2-3.2-1.2-4.1-2.6-0.3-0.5-0.5-1.1-0.9-1.4z"/>
		<path class="s1" d="m14.1 5.6c1.1-0.2 2.2 0.6 2.3 1.8 0.2 1.1-0.6 2.1-1.7 2.3-1.2 0.1-2.2-0.7-2.3-1.8-0.2-1.1 0.6-2.1 1.7-2.3z"/>
		<path class="s3" d="m14.2 6.5c0.6-0.1 1.2 0.4 1.3 1 0.1 0.6-0.3 1.2-1 1.2-0.6 0.1-1.1-0.3-1.2-0.9-0.1-0.6 0.3-1.2 0.9-1.3z"/>
		<path class="s4" d="m21 6.7q3.4-2.1 6.8-4.1 0.3 0.4 0.5 0.9l0.8 1.8q1.2 2.3 2.3 4.7-1 0.4-2 0.9c-0.9-0.8-2.1-1.2-3.3-1.2-1.2 0-2.5 0.6-3.3 1.4q0 0.1-0.1 0.1c-0.4-1.6-0.9-3.1-1.7-4.5z"/>
		<path class="s2" d="m29.4 10.9q0.2 0.3 0.5 0.6c0.6 0.9 1 2 0.9 3.1-0.1 1.5-0.6 2.7-1.7 3.6-0.9 0.9-2.1 1.5-3.2 2.2-0.5 0.3-1.1 0.6-1.5 1-0.4 0.4-0.7 1-0.7 1.5q0 0.2 0 0.4c-0.3-0.1-0.6-0.2-0.9-0.3q-1.1-0.4-2.1-0.8c0.2-1.3 0.9-2.4 1.9-3.2q0.6-0.4 1.1-0.7 0.9-0.6 1.9-1.2c0.5-0.3 1.1-0.6 1.5-1 0.5-0.4 0.8-0.9 0.8-1.5 0-0.5-0.2-1-0.6-1.4-0.4-0.4-0.8-0.5-1.3-0.6 0.2-0.2 0.7-0.3 1-0.5q0.8-0.3 1.6-0.8 0.4-0.1 0.8-0.4z"/>
	</g>
</svg>